<svg width="106" height="98" viewBox="0 0 106 98" fill="none" xmlns="http://www.w3.org/2000/svg">
<g style="mix-blend-mode:multiply">
<rect width="106" height="98" fill="white"/>
<ellipse cx="52.5" cy="48.5" rx="46.5" ry="40.5" fill="#1E7659"/>
<path d="M53 91.7974C63.4934 91.7974 72 58.358 72 48.6048C72 38.8517 63.4934 7.79736 53 7.79736C42.5066 7.79736 34 38.8517 34 48.6048C34 58.358 42.5066 91.7974 53 91.7974Z" stroke="white" stroke-width="3" stroke-linecap="round" stroke-linejoin="round"/>
<path d="M53 91.7974C67.9117 91.7974 80 58.358 80 48.6048C80 38.8517 67.9117 7.79736 53 7.79736C38.0883 7.79736 26 38.8517 26 48.6048C26 58.358 38.0883 91.7974 53 91.7974Z" stroke="white" stroke-width="3" stroke-linecap="round" stroke-linejoin="round"/>
<path d="M53 91.7974C72.33 91.7974 88 58.358 88 48.6048C88 38.8517 72.33 7.79736 53 7.79736C33.67 7.79736 18 38.8517 18 48.6048C18 58.358 33.67 91.7974 53 91.7974Z" stroke="white" stroke-width="3" stroke-linecap="round" stroke-linejoin="round"/>
<path d="M52.5 91.7974C75.4198 91.7974 94 58.358 94 48.6048C94 38.8517 75.4198 7.79736 52.5 7.79736C29.5802 7.79736 11 38.8517 11 48.6048C11 58.358 29.5802 91.7974 52.5 91.7974Z" stroke="white" stroke-width="3" stroke-linecap="round" stroke-linejoin="round"/>
<path d="M52.5 91.7974C80.3904 91.7974 103 58.358 103 48.6048C103 38.8517 80.3904 7.79736 52.5 7.79736C24.6096 7.79736 2 38.8517 2 48.6048C2 58.358 24.6096 91.7974 52.5 91.7974Z" stroke="white" stroke-width="3" stroke-linecap="round" stroke-linejoin="round"/>
<path d="M52.5 91.7974C58.299 91.7974 63 72.9933 63 49.7974C63 26.6014 58.299 7.79736 52.5 7.79736C46.701 7.79736 42 26.6014 42 49.7974C42 72.9933 46.701 91.7974 52.5 91.7974Z" stroke="white" stroke-width="3" stroke-linecap="round" stroke-linejoin="round"/>
<path d="M52.5 91.7974C54.433 91.7974 56 72.9933 56 49.7974C56 26.6014 54.433 7.79736 52.5 7.79736C50.567 7.79736 49 26.6014 49 49.7974C49 72.9933 50.567 91.7974 52.5 91.7974Z" stroke="white" stroke-width="3" stroke-linecap="round" stroke-linejoin="round"/>
</g>
</svg>
