<svg width="106" height="99" viewBox="0 0 106 99" fill="none" xmlns="http://www.w3.org/2000/svg">
<g style="mix-blend-mode:multiply">
<rect y="0.202576" width="106" height="98" fill="#F8F6F2"/>
<ellipse cx="52.5" cy="48.7026" rx="46.5" ry="40.5" fill="#1E7659"/>
<path d="M53 92C63.4934 92 72 58.5606 72 48.8075C72 39.0544 63.4934 8 53 8C42.5066 8 34 39.0544 34 48.8075C34 58.5606 42.5066 92 53 92Z" stroke="#F8F6F2" stroke-width="3" stroke-linecap="round" stroke-linejoin="round"/>
<path d="M53 92C67.9117 92 80 58.5606 80 48.8075C80 39.0544 67.9117 8 53 8C38.0883 8 26 39.0544 26 48.8075C26 58.5606 38.0883 92 53 92Z" stroke="#F8F6F2" stroke-width="3" stroke-linecap="round" stroke-linejoin="round"/>
<path d="M53 92C72.33 92 88 58.5606 88 48.8075C88 39.0544 72.33 8 53 8C33.67 8 18 39.0544 18 48.8075C18 58.5606 33.67 92 53 92Z" stroke="#F8F6F2" stroke-width="3" stroke-linecap="round" stroke-linejoin="round"/>
<path d="M52.5 92C75.4198 92 94 58.5606 94 48.8075C94 39.0544 75.4198 8 52.5 8C29.5802 8 11 39.0544 11 48.8075C11 58.5606 29.5802 92 52.5 92Z" stroke="#F8F6F2" stroke-width="3" stroke-linecap="round" stroke-linejoin="round"/>
<path d="M52.5 92C80.3904 92 103 58.5606 103 48.8075C103 39.0544 80.3904 8 52.5 8C24.6096 8 2 39.0544 2 48.8075C2 58.5606 24.6096 92 52.5 92Z" stroke="#F8F6F2" stroke-width="3" stroke-linecap="round" stroke-linejoin="round"/>
<path d="M52.5 92C58.299 92 63 73.196 63 50C63 26.804 58.299 8 52.5 8C46.701 8 42 26.804 42 50C42 73.196 46.701 92 52.5 92Z" stroke="#F8F6F2" stroke-width="3" stroke-linecap="round" stroke-linejoin="round"/>
<path d="M52.5 92C54.433 92 56 73.196 56 50C56 26.804 54.433 8 52.5 8C50.567 8 49 26.804 49 50C49 73.196 50.567 92 52.5 92Z" stroke="#F8F6F2" stroke-width="3" stroke-linecap="round" stroke-linejoin="round"/>
</g>
</svg>
